<svg xml:space="preserve" width="620" height="620" xmlns="http://www.w3.org/2000/svg">
  <defs>
    <clipPath clipPathUnits="userSpaceOnUse" id="a">
      <path d="M0 595.276h841.89V0H0Z"/>
    </clipPath>
    <clipPath clipPathUnits="userSpaceOnUse" id="b">
      <path d="M258.671 533.566h311.068V73.86H258.671Z"/>
    </clipPath>
  </defs>
  <g clip-path="url(#a)" style="fill:#164e63;fill-opacity:1" transform="matrix(1.33333 0 0 -1.33333 -242.274 714.95)">
    <g style="fill:#164e63;fill-opacity:1">
      <g style="fill:#164e63;fill-opacity:1" clip-path="url(#b)">
        <path d="M0 0c-.217 3.607-.568 7.202-.855 10.804V31.95c.076.549.204 1.098.217 1.654.159 5.363.67 10.694 1.283 16.025 1.398 12.125 3.199 24.167 6.762 35.877 4.367 14.366 11.045 27.461 20.757 39.024 10.1 12.022 22.544 19.231 38.436 20.01 11.697.574 21.408-3.25 28.738-12.623 6.43-8.211 10.375-17.635 13.523-27.436 1.641-5.12 2.656-10.381 2.452-15.809-.134-3.664-1.545-6.365-5.332-7.476a11.649 11.649 0 0 1-3.294-1.59c-3.154-2.19-5.989-1.583-8.824.645-4.75 3.748-8.345 8.352-10.764 13.894-1.271 2.911-2.005 5.995-3.059 8.97-1.162 3.288-2.56 6.462-4.922 9.092-2.21 2.458-4.751 2.937-7.752 1.571-1.213-.556-2.311-1.303-3.377-2.101-3.02-2.247-5.415-5.095-7.726-8.038-4.782-6.085-9.015-12.534-11.952-19.698-4.029-9.858-5.734-20.322-6.736-30.832-1.335-14.021-2.51-28.074-3.071-42.159-.134-3.46-.473-6.94.21-10.388.237-1.174.204-2.58 1.609-3.078 1.38-.491 2.312.531 3.238 1.297a31.778 31.778 0 0 1 2.802 2.605c2.031 2.151 4.061 4.316 6.002 6.551 9.015 10.394 16.824 21.695 24.697 32.945 5.676 8.116 11.192 16.352 17.775 23.79 4.929 5.555 11.065 7.4 18.254 5.861 8.204-1.756 12.999-8.242 12.406-16.607-.3-4.181-1.763-7.929-3.972-11.435-2.56-4.054-5.171-8.083-7.502-12.278-8.511-15.298-16.032-31.087-23.56-46.877-3.837-8.058-7.081-16.377-10.464-24.633-2.688-6.551-5.849-12.884-8.16-19.614-2.343-6.838-5.178-13.517-7.605-20.335-3.582-10.063-4.699-20.233-1.934-30.666 2.42-9.118 6.2-17.495 13.114-24.173 5.491-5.293 11.972-8.192 19.666-7.56 11.85.964 21.363 6.315 27.99 16.205 3.889 5.797 7.228 11.971 9.731 18.529 4.52 11.805 7.592 24 9.475 36.495.9 5.957 2.356 11.818 2.873 17.826.345 3.946.894 7.866.958 11.857.057 3.76.785 7.508 1.021 11.275.888 14.271 1.373 28.56 1.699 42.855.466 20.151-1.418 40.097-4.827 59.896-2.611 15.145-5.217 30.251-6.168 45.626-1.098 17.692-.97 35.302 1.98 52.828 1.672 9.966 3.568 19.825 7.003 29.408 5.274 14.704 11.698 28.687 21.734 40.844 13.064 15.828 29.453 26.037 49.7 29.849 2.746.517 5.542.773 8.313 1.149h10.113c.901-.473 1.903-.307 2.848-.447 12.38-1.864 22.366-8.14 30.602-17.207 7.771-8.549 12.649-18.752 16.134-29.76 4.86-15.342 6.998-30.915 5.21-46.947-1.704-15.375-5.874-30.111-12.053-44.26-2.274-5.216-4.03-10.7-7.337-15.438-.293-.415-.524-.932-.121-1.411.421-.491.919-.275 1.391-.045.231.109.442.262.678.364 7.144 3.059 14.403 4.31 21.753.843 6.518-3.077 10.72-8.319 13.197-15.011 2.918-7.878 3.978-16.115 4.642-24.428.185-2.33.102-4.687.593-6.991V58c-.593-1.839-.377-3.735-.325-5.6.165-6.435.172-12.865-.236-19.295-.799-12.648-2.312-25.181-5.23-37.542-1.723-7.317-3.645-14.583-6.545-21.479-3.344-7.961-7.769-15.406-13.637-21.855-6.04-6.653-13.153-11.831-21.817-14.467-11.09-3.371-21.925-3.014-31.854 3.671-5.401 3.632-10.126 8.077-14.25 13.146-7.26 8.919-12.304 19.097-16.92 29.517a13.682 13.682 0 0 0-1.175 4.89c-.223 4.649 2.132 8.039 5.822 10.261 3.212 1.935 6.692 1.238 9.859-.747 2.012-1.271 3.684-2.911 5.172-4.744 2.764-3.416 5.318-6.985 7.828-10.586 3.492-5.019 7.527-9.532 12.284-13.389 2.075-1.685 4.277-3.141 6.831-3.99 4.106-1.36 8.294-.141 11.002 3.236 2.355 2.931 4.131 6.194 5.42 9.712 3.595 9.807 5.868 19.965 7.586 30.226 1.973 11.773 3.671 23.592 5.362 35.41 1.009 7.023 1.954 14.078 1.66 21.197-.178 4.374-.382 8.799-3.045 12.617-1.277 1.826-2.65 2.439-4.859 1.985-3.307-.67-6.001-2.426-8.498-4.622-7.477-6.564-12.948-14.64-17.877-23.171-5.351-9.245-8.965-19.18-12.253-29.287-3.059-9.385-9.68-14.991-19.205-17.239-5.855-1.378-11.595 2.069-13.166 7.854a20.003 20.003 0 0 0-.708 5.145c-.02 4.432.964 8.709 1.991 12.975 1.648 6.831 4.578 13.21 7.394 19.575 7.432 16.792 14.583 33.693 21.102 50.855 5.976 15.733 11.658 31.567 15.004 48.123 2.422 17.715 1.323 44.808-11.811 56.052-7.695 6.391-16.301 8.453-25.783 4.131-4.686-2.133-8.996-4.91-12.405-8.805-7.393-8.441-13.836-17.501-18.203-27.952-5.28-12.655-7.643-25.878-8.256-39.484-.696-15.317 1.2-30.481 2.586-45.683.85-9.303 1.686-18.612 2.305-27.928.754-11.416.696-22.87.971-34.305.191-7.86.312-15.72.651-23.579.785-18.089 1.456-36.164.07-54.284-.658-8.536-.99-17.117-1.685-25.66-.952-11.659-2.548-23.215-5.721-34.51-1.935-6.902-5.012-13.345-7.956-19.851-6.697-14.799-15.866-27.799-27.984-38.66-8.658-7.757-18.229-13.931-29.626-16.913-2.86-.747-5.804-1.059-8.69-1.66H80.359c-2.726.619-5.504.933-8.211 1.667-8.555 2.323-15.738 7.145-22.647 12.443-7.138 5.479-12.481 12.425-16.351 20.521-5.81 12.17-7.457 25.182-7.438 38.436.013 9.297 1.059 18.536 2.924 27.666 3.301 16.173 7.847 31.962 14.175 47.229.261.625.772 1.321.019 1.947-.639.536-1.284.159-1.839-.185-4.514-2.745-9.507-3.85-14.679-4.387-5.733-.6-10.669 1.041-14.813 5.083C8.677-35.537 6.449-32.39 5-28.744c-1.788 4.495-3.174 9.092-3.716 13.957A286.234 286.234 0 0 0 0 0" style="fill:#164e63;fill-opacity:1;fill-rule:nonzero;stroke:none" transform="translate(259.527 262.57)"/>
      </g>
    </g>
  </g>
</svg>
